<?xml version="1.0" encoding="utf-8"?>
<!-- Generator: Adobe Illustrator 20.0.0, SVG Export Plug-In . SVG Version: 6.00 Build 0)  -->
<svg version="1.1" id="Layer_1" xmlns="http://www.w3.org/2000/svg" xmlns:xlink="http://www.w3.org/1999/xlink" x="0px" y="0px"
	 viewBox="0 0 900 650" style="enable-background:new 0 0 900 650;" xml:space="preserve">
<style type="text/css">
	.st0{fill:#FBB040;stroke:#000000;stroke-miterlimit:10;}
	.st1{fill:#1EABE2;}
	.st2{fill:#FFFFFF;stroke:#010101;stroke-miterlimit:10;}
	.st3{fill:#939597;stroke:#010101;stroke-miterlimit:10;}
	.st4{fill:#F2F3F3;stroke:#FFFFFF;stroke-width:0.5;stroke-miterlimit:10;}
	.st5{fill:#010101;}
	.st6{font-family:'MVBoli';}
	.st7{font-size:7px;}
	.st8{fill:#FBB040;}
</style>
<rect class="st0" width="900" height="650"/>
<g>
	<g>
		<path class="st1" d="M239.6,239.2c-28.7,2.6-51.5,28.5-47.6,57.7c1.8,13.4,10.1,25.1,23.5,28.7c13,3.5,26.3-2.4,33.7-13.3
			c1.8-2.7-2.5-5.2-4.3-2.5c-6.6,9.8-18.9,14.4-30.2,10.4c-12.1-4.3-17.9-16.4-18.1-28.7c-0.4-24.5,18.9-45,43-47.3
			C242.8,243.9,242.8,238.9,239.6,239.2L239.6,239.2z"/>
	</g>
</g>
<g>
	<g>
		<path class="st1" d="M280.9,287c-10.5,4.2-19.4,13.4-21.3,24.9c-2,12.2,7.2,18.6,18.6,17.7c10.2-0.8,24.9-4.3,26.3-16.6
			c1.5-12.8-12-18.9-21.9-22.3c-3.1-1-4.4,3.8-1.3,4.8c7.3,2.5,20.3,7.3,18.2,17.6c-1.8,8.8-13.9,10.9-21.3,11.5
			c-3.8,0.3-8.4,0.3-11.4-2.5c-3.4-3.2-2.8-8.5-1.6-12.5c2.6-8.1,9.1-14.6,17-17.8C285.2,290.7,283.9,285.8,280.9,287L280.9,287z"/>
	</g>
</g>
<g>
	<g>
		<path class="st1" d="M319.1,287.3c-1.6,13.6-3.1,27.2-4.7,40.8c1.6-0.2,3.3-0.4,4.9-0.7c-1.8-6.2-4-12.9-2.7-19.4
			c1.3-6.2,5.9-11.8,12.7-11c14,1.6,16.2,18.4,17.2,29.5c0.3,3.2,5.3,3.2,5,0c-1.2-14-5.5-35.2-23.9-34.6c-6.7,0.2-12,4.7-14.5,10.7
			c-3.6,8.5-1.1,17.6,1.4,26.1c0.9,2.9,4.6,2,4.9-0.7c1.6-13.6,3.1-27.2,4.7-40.8C324.5,284.1,319.5,284.1,319.1,287.3L319.1,287.3z
			"/>
	</g>
</g>
<g>
	<g>
		<path class="st1" d="M357.6,245.7c3.2,27.7,6.4,55.5,9.6,83.2c0.4,3.2,5.4,3.2,5,0c-3.2-27.7-6.4-55.5-9.6-83.2
			C362.3,242.6,357.2,242.5,357.6,245.7L357.6,245.7z"/>
	</g>
</g>
<g>
	<g>
		<path class="st1" d="M344.8,285.7c17.5-2.3,35-4.5,52.5-6.8c3.1-0.4,3.2-5.4,0-5c-17.5,2.3-35,4.5-52.5,6.8
			C341.7,281.1,341.6,286.1,344.8,285.7L344.8,285.7z"/>
	</g>
</g>
<g>
	<g>
		<path class="st1" d="M419.9,291.2c-10.3,0.5-20.1,5.5-26.1,14c-5.4,7.8-6.6,19.8,3.6,24.2c18,7.8,43.5-22.5,25.5-36.2
			c-2.2-1.7-4.4,1.4-3.4,3.4c6.5,12.9,18.5,22.2,32.6,25.3c3.1,0.7,4.5-4.1,1.3-4.8c-13-2.8-23.7-11.2-29.6-23
			c-1.1,1.1-2.3,2.3-3.4,3.4c13.1,10-10.6,35.4-22.8,26.2c-6.9-5.2-1.2-14.9,3.4-19.5c5.1-5,11.7-7.8,18.8-8.1
			C423.1,296,423.1,291,419.9,291.2L419.9,291.2z"/>
	</g>
</g>
<g>
	<g>
		<path class="st1" d="M487.7,289.9c-7.9,1-16.4,2.1-23,7.1c-5.9,4.5-10,12.3-7.6,19.8c2.1,6.5,8.6,10.6,15.1,11.6
			c9.1,1.4,17.8-2.8,25.7-6.8c2.9-1.4,0.3-5.8-2.5-4.3c-5.9,3-12.3,6.3-19.1,6.4c-5.5,0.1-12.1-2.4-14.2-8
			c-2.4-6.5,2.2-12.9,7.6-16.1s11.9-4,18-4.8C490.9,294.5,490.9,289.5,487.7,289.9L487.7,289.9z"/>
	</g>
</g>
<g>
	<g>
		<path class="st1" d="M506.8,248.6c0.2,24.8,2.7,49.4,7.7,73.7c0.6,3.2,5.5,1.8,4.8-1.3c-4.8-23.8-7.3-48-7.5-72.4
			C511.8,245.4,506.8,245.4,506.8,248.6L506.8,248.6z"/>
	</g>
</g>
<g>
	<g>
		<path class="st1" d="M479.1,285.6c26,0,52.1,0,78.1,0c3.2,0,3.2-5,0-5c-26,0-52.1,0-78.1,0C475.9,280.6,475.9,285.6,479.1,285.6
			L479.1,285.6z"/>
	</g>
</g>
<g>
	<g>
		<path class="st1" d="M283.4,360.1c3.8,25.2,4.9,50.7,3.5,76.1c-0.2,3.2,4.8,3.2,5,0c1.4-25.9,0.2-51.8-3.7-77.4
			C287.7,355.6,282.9,357,283.4,360.1L283.4,360.1z"/>
	</g>
</g>
<g>
	<g>
		<path class="st1" d="M282.5,361.4c11.7,21.6,23.4,43.3,35.1,64.9c1.5,2.8,5.9,0.3,4.3-2.5c-11.7-21.6-23.4-43.3-35.1-64.9
			C285.3,356.1,281,358.6,282.5,361.4L282.5,361.4z"/>
	</g>
</g>
<g>
	<g>
		<path class="st1" d="M334.6,369.1c1,20.1-3,40-11.6,58.2c-1.4,2.9,2.9,5.4,4.3,2.5c9-19,13.3-39.7,12.3-60.7
			C339.4,365.9,334.4,365.9,334.6,369.1L334.6,369.1z"/>
	</g>
</g>
<g>
	<g>
		<path class="st1" d="M339.4,370.1c-1.4-2.8-5.3-2.6-6.6,0.2c-1.1,2.5,0.6,5.5,1.4,7.8c1.4,4,2.8,8,4.1,12
			c5.2,15.1,10.4,30.2,15.6,45.4c1,3,5.9,1.7,4.8-1.3c-3.6-10.5-7.2-21-10.8-31.5c-1.7-4.9-3.4-9.9-5.1-14.8c-1-2.8-1.9-5.6-2.9-8.3
			c-0.4-1.2-0.8-2.5-1.3-3.7c-0.2-0.6-0.4-1.2-0.6-1.9c-0.2-1.4-1.2-1.9-2.9-1.4C336.5,375.5,340.8,373,339.4,370.1L339.4,370.1z"/>
	</g>
</g>
<g>
	<g>
		<path class="st1" d="M392,397.6c-9.5,5.4-16.8,14.9-18.4,25.8c-1.6,10.5,4.7,19.6,15.9,18.2c10.3-1.3,19.3-10.1,20.8-20.3
			c1.5-10.1-5-20.1-14.8-22.8c-2.4-0.7-4.2,2.4-2.4,4.2c10.2,10.3,20.3,20.5,30.5,30.8c2.3,2.3,5.8-1.2,3.5-3.5
			c-10.2-10.3-20.3-20.5-30.5-30.8c-0.8,1.4-1.6,2.8-2.4,4.2c18.3,5.1,11.9,30.7-4.6,33.3c-11.3,1.8-12.7-9.6-9.6-17.8
			c2.7-7.2,8-13.1,14.6-16.8C397.3,400.3,394.8,396,392,397.6L392,397.6z"/>
	</g>
</g>
<g>
	<g>
		<path class="st1" d="M431.3,398.4c2,13,4.1,26.1,6.1,39.1c0.4,2.8,5.3,2.1,4.9-0.7c-0.9-6.9-1.8-13.8-2.7-20.8
			c-0.4-3.1-1.3-6.6-1-9.7c0.4-5.9,5.3-5.5,9.4-3.7c11.3,4.9,19,15.8,21.3,27.7c0.6,3.2,5.4,1.8,4.8-1.3c-2.6-13.9-14-30.1-29-32.5
			c-6.7-1-11.4,3.2-11.5,9.8c-0.1,4.5,1,9.1,1.5,13.5c0.7,5.7,1.5,11.3,2.2,17c1.6-0.2,3.3-0.4,4.9-0.7c-2-13-4.1-26.1-6.1-39.1
			C435.6,393.9,430.8,395.2,431.3,398.4L431.3,398.4z"/>
	</g>
</g>
<g>
	<g>
		<path class="st1" d="M500.6,396.6c-8.9,4.2-15.3,12.9-16.4,22.8c-0.9,8,2.6,19.2,12.1,19.9c10.5,0.8,17.7-12.4,20.2-20.8
			c2.7-8.9,0-19.4-9.6-22.5c-2.5-0.8-4.1,2.5-2.4,4.2c11.8,12.3,23.5,24.5,35.3,36.8c2.2,2.3,5.8-1.2,3.5-3.5
			c-11.8-12.3-23.5-24.5-35.3-36.8c-0.8,1.4-1.6,2.8-2.4,4.2c8.3,2.7,7.8,12.7,5,19.2c-2.3,5.4-8.8,18-16.5,13.5
			c-5.7-3.4-5.7-12.1-4.1-17.6c2-6.7,6.8-12,13.1-15C506,399.5,503.5,395.2,500.6,396.6L500.6,396.6z"/>
	</g>
</g>
<g>
	<g>
		<path class="st1" d="M565.5,400.9c-13-5.1-16,18.7-14.9,26.5c1.6,11.3,13.5,18.9,23,10.4c4.7-4.2,6.9-10.9,8.8-16.7
			c2-6.3,3.1-13.2-0.1-19.3c-4.5-8.8-18.7-10.7-21.7,0.4c-0.8,3.1,4,4.4,4.8,1.3c1.1-4,5.8-5.2,9.2-3.2c3.1,1.9,4.6,5.8,4.8,9.3
			c0.4,6.8-2.9,16.3-6.8,21.9c-5.4,7.9-14.9,5.5-16.9-3.6c-1-4.4,0.8-25.2,8.5-22.2C567.1,406.9,568.4,402.1,565.5,400.9
			L565.5,400.9z"/>
	</g>
</g>
<g>
	<g>
		<path class="st1" d="M576.3,405.2c5.4,14.2,9.6,31.7,6.3,46.9c-1.5,6.8-5.1,13.5-11.5,16.6c-7,3.4-16,0.4-17.8-7.6
			c-0.7-3.1-5.5-1.8-4.8,1.3c1.6,7.2,8,12,15.2,12.6c7.9,0.7,15.1-4.2,19.3-10.5c5.4-8.1,6-18.4,5.4-27.9
			c-0.7-11.3-3.2-22.3-7.2-32.8C580,400.9,575.2,402.2,576.3,405.2L576.3,405.2z"/>
	</g>
</g>
<g>
	<g>
		<path class="st1" d="M603.7,413.8c7.3,2.1,15.6,4.1,22.6,0c4.9-2.8,8.1-8.9,6.3-14.5c-4.3-13.1-23.8-10.3-32.1-3.6
			c-10.5,8.5-11.2,24.2-3.3,34.7c8.6,11.5,25,13.3,37,6.4c2.8-1.6,0.3-5.9-2.5-4.3c-8.4,4.8-19.5,4.7-27.2-1.6
			c-7.4-6.1-10.2-17.8-5.3-26.3c4.4-7.6,14.6-11.8,23-8.6c7.2,2.7,7.3,10.7,0.4,13.9c-5.6,2.6-12.1,0.6-17.7-1
			C601.9,408,600.6,412.9,603.7,413.8L603.7,413.8z"/>
	</g>
</g>
<g>
	<g>
		<path class="st1" d="M654.9,403.3c3.6,9.9,7.1,19.9,10.7,29.8c1.5-0.6,3-1.3,4.6-1.9c-4.1-7.9-10.5-21.4-5.8-30.2
			c4.9-9.2,17.6-7.7,26.1-6.6c3.2,0.4,3.2-4.6,0-5c-10.6-1.3-24.4-1.8-30.5,9.1c-5.9,10.6,0.7,25.6,5.8,35.2
			c1.3,2.5,5.5,0.8,4.6-1.9c-3.6-9.9-7.1-19.9-10.7-29.8C658.6,399,653.8,400.3,654.9,403.3L654.9,403.3z"/>
	</g>
</g>
<ellipse transform="matrix(0.31 -0.9507 0.9507 0.31 241.4331 692.1122)" class="st2" cx="597.5" cy="179.7" rx="3.9" ry="7.3"/>
<ellipse transform="matrix(0.31 -0.9507 0.9507 0.31 237.26 695.0514)" class="st2" cx="597.5" cy="184.1" rx="3.9" ry="7.3"/>
<ellipse transform="matrix(0.31 -0.9507 0.9507 0.31 233.1228 698.1024)" class="st2" cx="597.5" cy="188.4" rx="3.9" ry="7.3"/>
<ellipse transform="matrix(0.31 -0.9507 0.9507 0.31 228.9857 701.1533)" class="st2" cx="597.6" cy="192.8" rx="3.9" ry="7.3"/>
<ellipse transform="matrix(0.31 -0.9507 0.9507 0.31 224.8124 704.0925)" class="st2" cx="597.5" cy="197.2" rx="3.9" ry="7.3"/>
<ellipse transform="matrix(0.31 -0.9507 0.9507 0.31 220.6753 707.1434)" class="st2" cx="597.5" cy="201.5" rx="3.9" ry="7.3"/>
<ellipse transform="matrix(0.31 -0.9507 0.9507 0.31 216.8317 709.9902)" class="st2" cx="597.6" cy="205.6" rx="3.9" ry="7.3"/>
<ellipse transform="matrix(0.31 -0.9507 0.9507 0.31 212.6584 712.9294)" class="st2" cx="597.5" cy="210" rx="3.9" ry="7.3"/>
<ellipse transform="matrix(0.31 -0.9507 0.9507 0.31 208.5213 715.9803)" class="st2" cx="597.5" cy="214.3" rx="3.9" ry="7.3"/>
<ellipse transform="matrix(0.31 -0.9507 0.9507 0.31 204.3481 718.9196)" class="st2" cx="597.5" cy="218.7" rx="3.9" ry="7.3"/>
<ellipse transform="matrix(0.31 -0.9507 0.9507 0.31 200.2109 721.9705)" class="st2" cx="597.5" cy="223.1" rx="3.9" ry="7.3"/>
<ellipse transform="matrix(0.31 -0.9507 0.9507 0.31 196.0738 725.0215)" class="st2" cx="597.5" cy="227.4" rx="3.9" ry="7.3"/>
<ellipse transform="matrix(0.31 -0.9507 0.9507 0.31 191.9006 727.9607)" class="st2" cx="597.5" cy="231.8" rx="3.9" ry="7.3"/>
<ellipse transform="matrix(0.31 -0.9507 0.9507 0.31 187.7634 731.0117)" class="st2" cx="597.5" cy="236.1" rx="3.9" ry="7.3"/>
<ellipse transform="matrix(0.31 -0.9507 0.9507 0.31 183.6263 734.0626)" class="st2" cx="597.5" cy="240.5" rx="3.9" ry="7.3"/>
<ellipse transform="matrix(0.31 -0.9507 0.9507 0.31 179.7467 736.7975)" class="st2" cx="597.5" cy="244.6" rx="3.9" ry="7.3"/>
<ellipse transform="matrix(0.31 -0.9507 0.9507 0.31 175.6095 739.8485)" class="st2" cx="597.5" cy="248.9" rx="3.9" ry="7.3"/>
<ellipse transform="matrix(0.31 -0.9507 0.9507 0.31 171.4725 742.8994)" class="st2" cx="597.6" cy="253.3" rx="3.9" ry="7.3"/>
<ellipse transform="matrix(0.31 -0.9507 0.9507 0.31 167.2991 745.8387)" class="st2" cx="597.5" cy="257.7" rx="3.9" ry="7.3"/>
<ellipse transform="matrix(0.31 -0.9507 0.9507 0.31 163.162 748.8895)" class="st2" cx="597.5" cy="262" rx="3.9" ry="7.3"/>
<ellipse transform="matrix(0.31 -0.9507 0.9507 0.31 158.9888 751.8289)" class="st2" cx="597.5" cy="266.4" rx="3.9" ry="7.3"/>
<ellipse transform="matrix(0.31 -0.9507 0.9507 0.31 154.8517 754.8798)" class="st2" cx="597.5" cy="270.8" rx="3.9" ry="7.3"/>
<ellipse transform="matrix(0.31 -0.9507 0.9507 0.31 150.7145 757.9308)" class="st2" cx="597.5" cy="275.1" rx="3.9" ry="7.3"/>
<ellipse transform="matrix(0.31 -0.9507 0.9507 0.31 146.5413 760.8699)" class="st2" cx="597.5" cy="279.5" rx="3.9" ry="7.3"/>
<ellipse transform="matrix(0.31 -0.9507 0.9507 0.31 142.6977 763.7167)" class="st2" cx="597.5" cy="283.5" rx="3.9" ry="7.3"/>
<ellipse transform="matrix(0.31 -0.9507 0.9507 0.31 138.5606 766.7676)" class="st2" cx="597.5" cy="287.9" rx="3.9" ry="7.3"/>
<ellipse transform="matrix(0.31 -0.9507 0.9507 0.31 134.3873 769.7068)" class="st2" cx="597.5" cy="292.3" rx="3.9" ry="7.3"/>
<ellipse transform="matrix(0.31 -0.9507 0.9507 0.31 130.2502 772.7578)" class="st2" cx="597.5" cy="296.6" rx="3.9" ry="7.3"/>
<ellipse transform="matrix(0.31 -0.9507 0.9507 0.31 126.1131 775.8087)" class="st2" cx="597.5" cy="301" rx="3.9" ry="7.3"/>
<ellipse transform="matrix(0.31 -0.9507 0.9507 0.31 121.9398 778.7479)" class="st2" cx="597.5" cy="305.4" rx="3.9" ry="7.3"/>
<ellipse transform="matrix(0.31 -0.9507 0.9507 0.31 117.8027 781.799)" class="st2" cx="597.5" cy="309.7" rx="3.9" ry="7.3"/>
<ellipse transform="matrix(0.31 -0.9507 0.9507 0.31 113.6656 784.8499)" class="st2" cx="597.6" cy="314.1" rx="3.9" ry="7.3"/>
<ellipse transform="matrix(0.31 -0.9507 0.9507 0.31 109.4923 787.7891)" class="st2" cx="597.5" cy="318.5" rx="3.9" ry="7.3"/>
<ellipse transform="matrix(0.31 -0.9507 0.9507 0.31 105.6488 790.6357)" class="st2" cx="597.5" cy="322.5" rx="3.9" ry="7.3"/>
<rect x="597.5" y="175.3" class="st3" width="112.4" height="153.6"/>
<rect x="629.9" y="203.3" class="st4" width="52.5" height="19.1"/>
<text transform="matrix(1 0 0 1 636.2662 211.0472)" class="st5 st6 st7">Address</text>
<text transform="matrix(1 0 0 1 636.2662 219.4472)" class="st5 st6 st7">       Book</text>
<g>
	<g>
		<path d="M447,328.6c3.2,0,3.2-5,0-5C443.8,323.6,443.8,328.6,447,328.6L447,328.6z"/>
	</g>
</g>
<g>
	<g>
		<path class="st8" d="M444.5,323.2c-0.2,1.2-0.5,2.4-0.7,3.6c-0.3,1.3,0.4,2.8,1.7,3.1c1.2,0.3,2.8-0.4,3.1-1.7
			c0.2-1.2,0.5-2.4,0.7-3.6c0.3-1.3-0.4-2.8-1.7-3.1C446.4,321.2,444.8,321.8,444.5,323.2L444.5,323.2z"/>
	</g>
</g>
<g>
	<g>
		<path class="st8" d="M446.6,327.3c1.5,1.2,2.9,2.4,4.4,3.6c1,0.9,2.5,1,3.5,0c0.9-0.9,1.1-2.7,0-3.5c-1.5-1.2-2.9-2.4-4.4-3.6
			c-1-0.9-2.5-1-3.5,0C445.7,324.6,445.6,326.4,446.6,327.3L446.6,327.3z"/>
	</g>
</g>
</svg>
