<?xml version="1.0" encoding="utf-8"?>
<!-- Generator: Adobe Illustrator 20.0.0, SVG Export Plug-In . SVG Version: 6.00 Build 0)  -->
<svg version="1.1" id="Layer_1" xmlns="http://www.w3.org/2000/svg" xmlns:xlink="http://www.w3.org/1999/xlink" x="0px" y="0px"
	 viewBox="0 0 900 650" style="enable-background:new 0 0 900 650;" xml:space="preserve">
<style type="text/css">
	.st0{fill:#B81E74;stroke:#B61E59;stroke-miterlimit:10;}
	.st1{fill:#FFFFFF;stroke:#EC008C;stroke-miterlimit:10;}
	.st2{font-family:'MyriadPro-Regular';}
	.st3{font-size:96px;}
	.st4{fill:#9B1261;stroke:#EC008C;stroke-width:5;stroke-miterlimit:10;}
	.st5{fill:#B93679;stroke:#EC008C;stroke-width:5;stroke-miterlimit:10;}
</style>
<rect class="st0" width="900" height="650"/>
<text transform="matrix(1 0 0 1 199.7185 280.8874)" class="st1 st2 st3">message</text>
<g>
	<text transform="matrix(1 0 0 1 500.4224 343.5633)" class="st1 st2 st3">me</text>
</g>
<path class="st4" d="M688.4,276h-99.9c-6.6,0-12-5.4-12-12v-41.5c0-6.6,5.4-12,12-12h99.9c6.6,0,12,5.4,12,12V264
	C700.4,270.6,695,276,688.4,276z"/>
<path class="st5" d="M702.9,264h-99.9c-6.6,0-12-5.4-12-12v-41.5c0-6.6,5.4-12,12-12h99.9c6.6,0,12,5.4,12,12V252
	C714.9,258.6,709.5,264,702.9,264z"/>
</svg>
