<?xml version="1.0" encoding="utf-8"?>
<!-- Generator: Adobe Illustrator 20.0.0, SVG Export Plug-In . SVG Version: 6.00 Build 0)  -->
<svg version="1.1" xmlns="http://www.w3.org/2000/svg" xmlns:xlink="http://www.w3.org/1999/xlink" x="0px" y="0px"
	 viewBox="0 0 900 650" style="enable-background:new 0 0 900 650;" xml:space="preserve">
<style type="text/css">
	.st0{fill:#3871B8;stroke:#416CB4;stroke-miterlimit:10;}
	.st1{fill:#FFFFFF;}
	.st2{font-family:'MyriadPro-Regular';}
	.st3{font-size:153.7371px;}
	.st4{fill:none;stroke:#EC008C;stroke-width:2;stroke-miterlimit:10;}
	.st5{fill:#0B6A9E;stroke:#B61E59;stroke-width:4;stroke-miterlimit:10;}
	.st6{fill:#0688CA;stroke:#B61E59;stroke-width:4;stroke-miterlimit:10;}
	.st7{fill:#0688CA;}
</style>
<g id="Layer_1">
	<rect class="st0" width="900" height="650"/>
	<text transform="matrix(0.8692 0 0 1 93.6083 329.2523)" class="st1 st2 st3">message</text>
	<text transform="matrix(0.8692 0 0 1 93.6083 329.2523)" class="st4 st2 st3">message</text>
	<g>
		<text transform="matrix(0.8692 0 0 1 512.16 429.6234)" class="st1 st2 st3">me</text>
		<text transform="matrix(0.8692 0 0 1 512.16 429.6234)" class="st4 st2 st3">me</text>
	</g>
	<path class="st5" d="M789.7,253.9H650.6c-9.2,0-16.7-8.6-16.7-19.2v-66.5c0-10.6,7.5-19.2,16.7-19.2h139.1
		c9.2,0,16.7,8.6,16.7,19.2v66.5C806.4,245.2,798.9,253.9,789.7,253.9z"/>
	<polygon class="st6" points="621.6,323.7 658.5,247.1 688.3,281.7 	"/>
	<path class="st6" d="M810.7,285.4H671.6c-9.2,0-16.7-8.6-16.7-19.2v-66.5c0-10.6,7.5-19.2,16.7-19.2h139.1
		c9.2,0,16.7,8.6,16.7,19.2v66.5C827.4,276.7,819.9,285.4,810.7,285.4z"/>
	<path class="st7" d="M677,266.2c-0.8,0.5-1.6,0.9-2.4,1.4c-1.4-3.5-3.1-7-4.4-10.3c-1.9-4.6-9-5.7-11.9-1.7
		c-3.6,5-6.2,10.1-8.2,16.1c-1.6,4.8,0.9,8.3,4.2,9.6c-0.9,4.2,0.6,9,5.1,9.9c2.5,0.5,4.4,1.2,7,0.5c2.4-0.7,4.9-2,7-3.5
		c3.8-2.7,7.3-5.3,11.3-7.5C693.3,275.7,685.6,261.3,677,266.2z"/>
</g>
<g id="Layer_2">
</g>
</svg>
